<svg xmlns="http://www.w3.org/2000/svg"
     width="1600" height="760" viewBox="0 0 1600 760"
     role="img" aria-label="Hub de documentação do ForgeDocs">
  <defs>
    <linearGradient id="bg" x1="0" y1="0" x2="1" y2="1">
      <stop offset="0%" stop-color="#090C11"/>
      <stop offset="58%" stop-color="#0D1118"/>
      <stop offset="100%" stop-color="#111827"/>
    </linearGradient>
    <linearGradient id="accent" x1="0" y1="0" x2="1" y2="0">
      <stop offset="0%" stop-color="#60A5FA"/>
      <stop offset="100%" stop-color="#2563EB"/>
    </linearGradient>
    <radialGradient id="glow" cx="50%" cy="10%" r="70%">
      <stop offset="0%" stop-color="#2563EB" stop-opacity="0.18"/>
      <stop offset="70%" stop-color="#2563EB" stop-opacity="0.025"/>
      <stop offset="100%" stop-color="#2563EB" stop-opacity="0"/>
    </radialGradient>
    <radialGradient id="cardGlow" cx="0%" cy="0%" r="95%">
      <stop offset="0%" stop-color="#2563EB" stop-opacity="0.10"/>
      <stop offset="100%" stop-color="#2563EB" stop-opacity="0"/>
    </radialGradient>
    <pattern id="grid" width="40" height="40" patternUnits="userSpaceOnUse">
      <path d="M40 0H0V40" fill="none"
            stroke="#94A3B8" stroke-opacity="0.045"/>
    </pattern>
  </defs>

  <rect width="1600" height="760" rx="28" fill="url(#bg)"/>
  <rect width="1600" height="760" rx="28" fill="url(#grid)"/>
  <rect width="1600" height="760" rx="28" fill="url(#glow)"/>

  <g transform="translate(88 62)">
    <rect width="58" height="6" rx="3" fill="url(#accent)"/>
    <text x="0" y="48"
          font-family="Host Grotesk, Inter, Segoe UI, Arial, sans-serif" font-size="17" font-weight="700"
          letter-spacing="3.2" fill="#7DD3FC">DOCUMENTAÇÃO</text>
    <text x="0" y="116"
          font-family="Host Grotesk, Inter, Segoe UI, Arial, sans-serif" font-size="48" font-weight="700"
          letter-spacing="-1.5" fill="#F8FAFC">Uma base técnica para entender, manter e evoluir.</text>
    <text x="0" y="166"
          font-family="Host Grotesk, Inter, Segoe UI, Arial, sans-serif" font-size="21" font-weight="400"
          fill="#94A3B8">Guias essenciais para arquitetura, desenvolvimento, interface e identidade do ForgeDocs.</text>
  </g>

  
  <g>
    <rect x="88" y="292" width="440" height="146" rx="22"
          fill="#111827" stroke="#243244" stroke-width="2"/>
    <rect x="89" y="293" width="438" height="144" rx="21"
          fill="url(#cardGlow)" opacity="0.78"/>

    <rect x="112" y="316" width="58" height="58" rx="15"
          fill="#172554" stroke="#2563EB" stroke-opacity="0.72"/>
    
    <g transform="translate(126 330) scale(1.25)"
       fill="none" stroke="#93C5FD" stroke-width="1.7"
       stroke-linecap="round" stroke-linejoin="round">
      <path d="M4 19.5A2.5 2.5 0 0 1 6.5 17H20"/>
      <path d="M6.5 2H20v20H6.5A2.5 2.5 0 0 1 4 19.5v-15A2.5 2.5 0 0 1 6.5 2Z"/>
    </g>

    <text x="192" y="350"
          font-family="Host Grotesk, Inter, Segoe UI, Arial, sans-serif" font-size="24" font-weight="700"
          fill="#F8FAFC">Architecture</text>

    <text x="192" y="386"
          font-family="Host Grotesk, Inter, Segoe UI, Arial, sans-serif" font-size="16" font-weight="500"
          fill="#94A3B8">
      <tspan x="192" dy="0">Visão geral da arquitetura</tspan>
      <tspan x="192" dy="22">e das camadas do sistema.</tspan>
    </text>
  </g>
  <g>
    <rect x="576" y="292" width="440" height="146" rx="22"
          fill="#111827" stroke="#243244" stroke-width="2"/>
    <rect x="577" y="293" width="438" height="144" rx="21"
          fill="url(#cardGlow)" opacity="0.78"/>

    <rect x="600" y="316" width="58" height="58" rx="15"
          fill="#172554" stroke="#2563EB" stroke-opacity="0.72"/>
    
    <g transform="translate(614 330) scale(1.25)"
       fill="none" stroke="#93C5FD" stroke-width="1.7"
       stroke-linecap="round" stroke-linejoin="round">
      <path d="M4 19.5A2.5 2.5 0 0 1 6.5 17H20"/>
      <path d="M6.5 2H20v20H6.5A2.5 2.5 0 0 1 4 19.5v-15A2.5 2.5 0 0 1 6.5 2Z"/>
    </g>

    <text x="680" y="350"
          font-family="Host Grotesk, Inter, Segoe UI, Arial, sans-serif" font-size="24" font-weight="700"
          fill="#F8FAFC">Coding Standards</text>

    <text x="680" y="386"
          font-family="Host Grotesk, Inter, Segoe UI, Arial, sans-serif" font-size="16" font-weight="500"
          fill="#94A3B8">
      <tspan x="680" dy="0">Convenções de código,</tspan>
      <tspan x="680" dy="22">qualidade e manutenção.</tspan>
    </text>
  </g>
  <g>
    <rect x="1064" y="292" width="440" height="146" rx="22"
          fill="#111827" stroke="#243244" stroke-width="2"/>
    <rect x="1065" y="293" width="438" height="144" rx="21"
          fill="url(#cardGlow)" opacity="0.78"/>

    <rect x="1088" y="316" width="58" height="58" rx="15"
          fill="#172554" stroke="#2563EB" stroke-opacity="0.72"/>
    
    <g transform="translate(1102 330) scale(1.25)"
       fill="none" stroke="#93C5FD" stroke-width="1.7"
       stroke-linecap="round" stroke-linejoin="round">
      <path d="M4 19.5A2.5 2.5 0 0 1 6.5 17H20"/>
      <path d="M6.5 2H20v20H6.5A2.5 2.5 0 0 1 4 19.5v-15A2.5 2.5 0 0 1 6.5 2Z"/>
    </g>

    <text x="1168" y="350"
          font-family="Host Grotesk, Inter, Segoe UI, Arial, sans-serif" font-size="24" font-weight="700"
          fill="#F8FAFC">UI Guidelines</text>

    <text x="1168" y="386"
          font-family="Host Grotesk, Inter, Segoe UI, Arial, sans-serif" font-size="16" font-weight="500"
          fill="#94A3B8">
      <tspan x="1168" dy="0">Padrões visuais e de</tspan>
      <tspan x="1168" dy="22">experiência da aplicação.</tspan>
    </text>
  </g>
  <g>
    <rect x="332" y="486" width="440" height="146" rx="22"
          fill="#111827" stroke="#243244" stroke-width="2"/>
    <rect x="333" y="487" width="438" height="144" rx="21"
          fill="url(#cardGlow)" opacity="0.78"/>

    <rect x="356" y="510" width="58" height="58" rx="15"
          fill="#172554" stroke="#2563EB" stroke-opacity="0.72"/>
    
    <g transform="translate(370 524) scale(1.25)"
       fill="none" stroke="#93C5FD" stroke-width="1.7"
       stroke-linecap="round" stroke-linejoin="round">
      <path d="M4 19.5A2.5 2.5 0 0 1 6.5 17H20"/>
      <path d="M6.5 2H20v20H6.5A2.5 2.5 0 0 1 4 19.5v-15A2.5 2.5 0 0 1 6.5 2Z"/>
    </g>

    <text x="436" y="544"
          font-family="Host Grotesk, Inter, Segoe UI, Arial, sans-serif" font-size="24" font-weight="700"
          fill="#F8FAFC">Roadmap</text>

    <text x="436" y="580"
          font-family="Host Grotesk, Inter, Segoe UI, Arial, sans-serif" font-size="16" font-weight="500"
          fill="#94A3B8">
      <tspan x="436" dy="0">Planejamento técnico</tspan>
      <tspan x="436" dy="22">e evolução das funcionalidades.</tspan>
    </text>
  </g>
  <g>
    <rect x="820" y="486" width="440" height="146" rx="22"
          fill="#111827" stroke="#243244" stroke-width="2"/>
    <rect x="821" y="487" width="438" height="144" rx="21"
          fill="url(#cardGlow)" opacity="0.78"/>

    <rect x="844" y="510" width="58" height="58" rx="15"
          fill="#172554" stroke="#2563EB" stroke-opacity="0.72"/>
    
    <g transform="translate(858 524) scale(1.25)"
       fill="none" stroke="#93C5FD" stroke-width="1.7"
       stroke-linecap="round" stroke-linejoin="round">
      <path d="M4 19.5A2.5 2.5 0 0 1 6.5 17H20"/>
      <path d="M6.5 2H20v20H6.5A2.5 2.5 0 0 1 4 19.5v-15A2.5 2.5 0 0 1 6.5 2Z"/>
    </g>

    <text x="924" y="544"
          font-family="Host Grotesk, Inter, Segoe UI, Arial, sans-serif" font-size="24" font-weight="700"
          fill="#F8FAFC">Branding</text>

    <text x="924" y="580"
          font-family="Host Grotesk, Inter, Segoe UI, Arial, sans-serif" font-size="16" font-weight="500"
          fill="#94A3B8">
      <tspan x="924" dy="0">Identidade visual, linguagem</tspan>
      <tspan x="924" dy="22">e posicionamento.</tspan>
    </text>
  </g>

  <g transform="translate(88 700)">
    <circle cx="7" cy="7" r="7" fill="#2563EB"/>
    <circle cx="7" cy="7" r="2.5" fill="#BFDBFE"/>
    <text x="27" y="13"
          font-family="Host Grotesk, Inter, Segoe UI, Arial, sans-serif" font-size="15" font-weight="600"
          fill="#64748B">Documentação centralizada • Decisões registradas • Evolução sustentável</text>
  </g>

  <rect x="1" y="1" width="1598" height="758" rx="27"
        fill="none" stroke="#334155"
        stroke-opacity="0.70" stroke-width="2"/>
</svg>